<svg xmlns="http://www.w3.org/2000/svg" version="1.0" width="519.000000pt" height="156.000000pt" viewBox="0 0 519.000000 156.000000" preserveAspectRatio="xMidYMid meet">

<g transform="translate(0.000000,156.000000) scale(0.100000,-0.100000)" fill="#2d2d2e" stroke="none">
<path d="M110 696 l0 -406 163 0 c244 0 333 25 415 114 100 108 127 291 70 465 -28 87 -107 168 -193 201 -53 21 -83 24 -257 28 l-198 4 0 -406z m383 240 c44 -18 94 -77 107 -127 15 -54 15 -174 1 -227 -7 -23 -25 -57 -41 -76 -51 -58 -91 -69 -227 -67 l-53 1 0 255 0 255 90 0 c54 0 104 -6 123 -14z"/>
<path d="M870 695 l0 -405 80 0 80 0 0 165 0 165 135 0 135 0 0 75 0 75 -135 0 -135 0 0 90 0 90 155 0 155 0 0 75 0 75 -235 0 -235 0 0 -405z"/>
<path d="M1988 1094 c-3 -3 -59 -6 -125 -7 -105 -2 -124 -5 -175 -29 -74 -34 -146 -107 -184 -183 -27 -56 -29 -68 -29 -175 0 -107 2 -119 29 -175 79 -161 264 -257 437 -226 186 32 319 167 348 351 11 66 2 159 -19 216 -6 14 -10 45 -10 69 0 32 -7 51 -26 74 -35 42 -53 51 -153 72 -99 22 -86 20 -93 13z m-50 -55 c-2 -7 -32 -13 -68 -15 -173 -8 -301 -150 -288 -318 16 -199 217 -324 396 -246 121 52 190 199 153 327 -7 24 -6 35 5 44 16 13 5 33 -19 35 -7 0 -19 2 -28 2 -8 1 -25 19 -36 40 -12 20 -33 48 -47 61 -29 27 -34 68 -11 77 23 9 146 -16 182 -37 36 -22 43 -37 43 -87 0 -20 7 -58 14 -84 16 -52 13 -62 -15 -45 -13 8 -22 8 -29 1 -16 -16 -2 -42 31 -56 24 -11 29 -19 29 -50 0 -39 -16 -60 -26 -34 -7 18 -30 21 -39 6 -7 -12 13 -51 34 -67 14 -10 14 -15 -2 -47 -19 -40 -32 -46 -40 -16 -3 11 -12 20 -21 20 -19 0 -22 -41 -5 -72 9 -17 6 -24 -23 -49 -41 -35 -48 -36 -48 -4 0 18 -5 25 -20 25 -19 0 -25 -17 -22 -61 1 -17 -37 -39 -69 -39 -16 0 -18 5 -13 25 5 21 3 25 -14 25 -15 0 -25 -11 -34 -36 -12 -35 -14 -36 -52 -29 -47 7 -56 13 -37 25 15 9 8 40 -9 40 -6 0 -21 -11 -34 -23 l-24 -24 -38 20 c-51 26 -51 25 -29 41 28 20 9 39 -32 33 -29 -5 -39 -2 -59 21 -26 30 -30 48 -12 54 20 7 0 38 -25 38 -20 0 -26 7 -35 39 -8 35 -7 40 9 44 25 7 24 28 -1 34 -25 7 -30 73 -5 73 23 0 31 31 12 45 -14 10 -14 15 3 53 40 90 116 159 203 187 54 17 200 20 195 4z m28 -86 c13 -16 36 -47 50 -70 14 -24 30 -43 36 -43 5 0 18 -21 30 -47 41 -93 2 -213 -90 -277 -35 -25 -55 -31 -112 -34 -85 -5 -142 19 -195 81 -142 166 -26 417 192 417 57 0 67 -3 89 -27z"/>
<path d="M2107 994 c-14 -15 -6 -34 14 -34 14 0 19 5 17 17 -3 18 -20 27 -31 17z"/>
<path d="M2410 695 l0 -406 83 3 82 3 3 178 2 178 26 -3 c22 -3 42 -30 126 -173 55 -93 103 -174 107 -178 4 -4 49 -6 99 -5 l92 3 -120 180 -120 180 36 12 c55 19 91 50 114 99 32 66 25 169 -16 226 -63 89 -125 108 -356 108 l-158 0 0 -405z m339 254 c17 -6 36 -19 41 -29 17 -31 12 -96 -9 -121 -17 -21 -29 -24 -110 -27 l-91 -4 0 96 0 96 69 0 c37 0 82 -5 100 -11z"/>
<path d="M3080 695 l0 -408 193 6 c122 3 207 10 232 19 187 64 266 211 243 455 -11 122 -74 229 -162 276 -80 42 -116 49 -313 54 l-193 6 0 -408z m416 219 c64 -52 79 -92 79 -219 0 -125 -15 -168 -76 -216 -39 -32 -143 -53 -208 -43 l-39 6 -4 67 c-2 36 -2 151 0 255 l3 188 104 -4 c98 -3 106 -5 141 -34z"/>
<path d="M3835 1068 c-3 -18 -4 -199 -3 -403 l3 -370 233 -3 232 -2 0 70 0 70 -112 2 c-62 1 -130 2 -151 3 l-37 0 0 97 0 97 108 -5 c59 -2 120 -2 135 2 28 6 28 7 25 72 l-3 67 -132 3 -133 3 0 89 0 90 150 0 150 0 0 75 0 75 -230 0 -229 0 -6 -32z"/>
<path d="M4341 1018 c16 -46 83 -227 147 -403 l117 -320 91 -3 91 -3 73 198 c41 109 108 291 150 406 l77 207 -87 0 -87 0 -58 -167 c-32 -93 -80 -233 -108 -312 l-50 -144 -106 309 -106 309 -87 3 -88 3 31 -83z"/>
</g>
</svg>