<svg xmlns="http://www.w3.org/2000/svg" version="1.0" width="519.000000pt" height="156.000000pt" viewBox="0 0 519.000000 156.000000" preserveAspectRatio="xMidYMid meet">

<g transform="translate(0.000000,156.000000) scale(0.100000,-0.100000)" fill="#2d2d2e" stroke="none">
<path d="M1988 1094 c-3 -3 -59 -6 -125 -7 -105 -2 -124 -5 -175 -29 -74 -34 -146 -107 -184 -183 -27 -56 -29 -68 -29 -175 0 -107 2 -119 29 -175 79 -161 264 -257 437 -226 186 32 319 167 348 351 11 66 2 159 -19 216 -6 14 -10 45 -10 69 0 32 -7 51 -26 74 -35 42 -53 51 -153 72 -99 22 -86 20 -93 13z m-50 -55 c-2 -7 -32 -13 -68 -15 -173 -8 -301 -150 -288 -318 16 -199 217 -324 396 -246 121 52 190 199 153 327 -7 24 -6 35 5 44 16 13 5 33 -19 35 -7 0 -19 2 -28 2 -8 1 -25 19 -36 40 -12 20 -33 48 -47 61 -29 27 -34 68 -11 77 23 9 146 -16 182 -37 36 -22 43 -37 43 -87 0 -20 7 -58 14 -84 16 -52 13 -62 -15 -45 -13 8 -22 8 -29 1 -16 -16 -2 -42 31 -56 24 -11 29 -19 29 -50 0 -39 -16 -60 -26 -34 -7 18 -30 21 -39 6 -7 -12 13 -51 34 -67 14 -10 14 -15 -2 -47 -19 -40 -32 -46 -40 -16 -3 11 -12 20 -21 20 -19 0 -22 -41 -5 -72 9 -17 6 -24 -23 -49 -41 -35 -48 -36 -48 -4 0 18 -5 25 -20 25 -19 0 -25 -17 -22 -61 1 -17 -37 -39 -69 -39 -16 0 -18 5 -13 25 5 21 3 25 -14 25 -15 0 -25 -11 -34 -36 -12 -35 -14 -36 -52 -29 -47 7 -56 13 -37 25 15 9 8 40 -9 40 -6 0 -21 -11 -34 -23 l-24 -24 -38 20 c-51 26 -51 25 -29 41 28 20 9 39 -32 33 -29 -5 -39 -2 -59 21 -26 30 -30 48 -12 54 20 7 0 38 -25 38 -20 0 -26 7 -35 39 -8 35 -7 40 9 44 25 7 24 28 -1 34 -25 7 -30 73 -5 73 23 0 31 31 12 45 -14 10 -14 15 3 53 40 90 116 159 203 187 54 17 200 20 195 4z m28 -86 c13 -16 36 -47 50 -70 14 -24 30 -43 36 -43 5 0 18 -21 30 -47 41 -93 2 -213 -90 -277 -35 -25 -55 -31 -112 -34 -85 -5 -142 19 -195 81 -142 166 -26 417 192 417 57 0 67 -3 89 -27z"/>
</g>
</svg>